<?xml version="1.0" encoding="utf-8"?>
<!-- Generator: Adobe Illustrator 16.0.0, SVG Export Plug-In . SVG Version: 6.00 Build 0)  -->
<!DOCTYPE svg PUBLIC "-//W3C//DTD SVG 1.1//EN" "http://www.w3.org/Graphics/SVG/1.1/DTD/svg11.dtd">
<svg version="1.1" id="Layer_1" xmlns="http://www.w3.org/2000/svg" xmlns:xlink="http://www.w3.org/1999/xlink" x="0px" y="0px"
	 width="44.181px" height="49.691px" viewBox="2.579 0.424 44.181 49.691" enable-background="new 2.579 0.424 44.181 49.691"
	 xml:space="preserve">
<path fill="#C3D3EA" d="M22.71,50.115l-0.69-0.955c-1.16-1.604-1.861-3.319-2.539-4.978c-0.62-1.518-1.208-2.956-2.118-4.297
	c-1.592-0.507-3.355-0.849-5.064-1.18c-1.92-0.371-3.905-0.756-5.735-1.383l-1.247-0.428l0.747-1.085
	c0.415-0.604,0.851-1.205,1.285-1.784l0.284-0.38l1.139-0.048c3.358-0.143,6.729-0.285,10.085-0.413
	c1.208-3.322,3.001-6.183,4.633-8.469l-20.91-5.427l0.859-1.187c0.69-0.953,1.381-1.909,2.069-2.865l0.298-0.414l0.51-0.002
	c4.067-0.018,8.087,0.019,12.105,0.056c4.149,0.038,8.291,0.077,12.493,0.053c2.618-3.624,5.393-7.456,8.021-11.061
	c1.917-2.243,4.198-3.445,6.472-3.445l1.007,0.032l0.166,0.759c1.11,5.102-3.081,9.978-7.134,14.694
	c-1.085,1.263-2.117,2.462-3.019,3.636c1.8,5.519,3.602,11.025,5.402,16.53l2.232,6.825l-1.148,1.325
	c-0.396,0.453-0.794,0.908-1.185,1.372l-0.887,1.053l-0.727-1.169c-3.385-5.441-6.753-10.862-10.135-16.306
	c-1.785,2.938-4.04,5.566-6.723,7.838c0.447,1.556,0.87,2.925,1.292,4.294c0.488,1.581,0.976,3.161,1.5,5.02l0.157,0.561
	l-0.409,0.414c-0.257,0.26-0.716,0.646-1.202,1.057c-0.423,0.356-0.845,0.71-1.054,0.92L22.71,50.115z M8.505,35.826
	c1.347,0.369,2.778,0.646,4.173,0.917c1.886,0.364,3.835,0.742,5.633,1.35l0.305,0.103l0.188,0.261
	c1.155,1.607,1.854,3.316,2.529,4.97c0.52,1.271,1.017,2.488,1.699,3.634c0.089-0.075,0.181-0.152,0.273-0.229
	c0.217-0.184,0.45-0.38,0.649-0.553c-0.456-1.59-0.886-2.984-1.316-4.38c-0.482-1.563-0.965-3.129-1.484-4.966l-0.179-0.633
	l0.51-0.414c3.198-2.602,5.677-5.59,7.578-9.134l0.817-1.525l1.573,2.533c3.217,5.178,6.421,10.337,9.639,15.51
	c0.104-0.12,0.209-0.24,0.313-0.359l0.401-0.462l-1.881-5.75c-1.854-5.67-3.71-11.344-5.564-17.029l-0.16-0.492l0.31-0.416
	c1.014-1.359,2.181-2.717,3.416-4.155c3.484-4.054,7.079-8.237,6.813-12.132c-1.469,0.215-2.952,1.131-4.24,2.635
	c-2.678,3.678-5.561,7.662-8.264,11.404l-0.297,0.411l-0.507,0.003c-4.382,0.03-8.706-0.01-13.032-0.05
	c-3.842-0.036-7.691-0.074-11.568-0.058c-0.305,0.423-0.611,0.847-0.917,1.27l20.94,5.435l-0.89,1.192
	c-1.957,2.622-4.133,5.831-5.442,9.759l-0.219,0.657l-0.692,0.025c-3.579,0.135-7.175,0.287-10.758,0.438l-0.188,0.008
	C8.613,35.679,8.559,35.752,8.505,35.826z"/>
</svg>
