<?xml version="1.0" encoding="utf-8"?>
<!-- Generator: Adobe Illustrator 16.0.0, SVG Export Plug-In . SVG Version: 6.00 Build 0)  -->
<!DOCTYPE svg PUBLIC "-//W3C//DTD SVG 1.1//EN" "http://www.w3.org/Graphics/SVG/1.1/DTD/svg11.dtd">
<svg version="1.1" id="Layer_1" xmlns="http://www.w3.org/2000/svg" xmlns:xlink="http://www.w3.org/1999/xlink" x="0px" y="0px"
	 width="31px" height="31px" viewBox="0 0 31 31" enable-background="new 0 0 31 31" xml:space="preserve">
<g>
	<g>
		<path fill-rule="evenodd" clip-rule="evenodd" fill="#FF9523" d="M6.519,8.042c0.336,0.336,0.881,0.336,1.218,0
			c0.335-0.336,0.335-0.881,0-1.217L5.605,4.692c-0.336-0.336-0.881-0.336-1.217,0c-0.336,0.335-0.337,0.882,0,1.217L6.519,8.042z
			 M4.736,15.716c0-0.476-0.386-0.861-0.861-0.861H0.861C0.385,14.854,0,15.24,0,15.716c0,0.475,0.385,0.861,0.861,0.861h3.014
			C4.35,16.577,4.736,16.19,4.736,15.716z M6.823,23.264l-2.131,2.131c-0.336,0.337-0.336,0.882,0,1.219
			c0.336,0.336,0.881,0.336,1.218,0l2.131-2.132c0.336-0.336,0.336-0.882,0-1.218S7.16,22.928,6.823,23.264z M15.285,4.736
			c0.475,0,0.861-0.386,0.861-0.861V0.861C16.146,0.386,15.76,0,15.285,0c-0.476,0-0.861,0.386-0.861,0.861v3.013
			C14.423,4.35,14.809,4.736,15.285,4.736z M24.177,7.736l2.131-2.131c0.336-0.336,0.336-0.881,0-1.218
			c-0.336-0.336-0.882-0.336-1.218,0l-2.131,2.131c-0.336,0.336-0.336,0.881,0,1.218S23.84,8.073,24.177,7.736z M15.5,6.782
			c-4.815,0-8.719,3.903-8.719,8.719c0,4.815,3.903,8.718,8.719,8.718s8.719-3.903,8.719-8.718
			C24.219,10.685,20.315,6.782,15.5,6.782z M15.5,21c-3.038,0-5.5-2.463-5.5-5.5C10,12.463,12.462,10,15.5,10
			c3.038,0,5.5,2.463,5.5,5.501C21,18.537,18.538,21,15.5,21z M30.139,14.423h-3.014c-0.476,0-0.861,0.386-0.861,0.862
			c0.001,0.474,0.386,0.86,0.861,0.86h3.014c0.476,0,0.861-0.386,0.861-0.86C31,14.809,30.614,14.423,30.139,14.423z M24.481,22.959
			c-0.336-0.336-0.882-0.336-1.218,0c-0.336,0.337-0.336,0.882,0,1.218l2.131,2.131c0.337,0.336,0.882,0.336,1.219,0
			c0.336-0.336,0.336-0.882,0-1.218L24.481,22.959z M15.715,26.265c-0.475,0-0.861,0.385-0.861,0.86v3.015
			c0,0.476,0.386,0.86,0.861,0.86c0.476,0,0.862-0.385,0.862-0.86v-3.015C16.577,26.649,16.191,26.265,15.715,26.265z"/>
	</g>
</g>
<polygon fill-rule="evenodd" clip-rule="evenodd" fill="#FFFFFF" points="27.6,4 24.6,4 16.221,15.335 12.6,13.244 11.6,15.285 
	15.6,18.306 16.6,18.158 "/>
</svg>
