<?xml version="1.0" encoding="utf-8"?>
<!-- Generator: Adobe Illustrator 16.0.0, SVG Export Plug-In . SVG Version: 6.00 Build 0)  -->
<!DOCTYPE svg PUBLIC "-//W3C//DTD SVG 1.1//EN" "http://www.w3.org/Graphics/SVG/1.1/DTD/svg11.dtd">
<svg version="1.1" id="Layer_1" xmlns="http://www.w3.org/2000/svg" xmlns:xlink="http://www.w3.org/1999/xlink" x="0px" y="0px"
	 width="420.66px" height="734px" viewBox="0 0 420.66 734" enable-background="new 0 0 420.66 734" xml:space="preserve">
<path d="M367.773,157.944c-35.255-26.384-84.821-39.595-148.625-39.595H72.343v252.606H0v71.256h72.343V477H0v71.256h72.343v67.412
	h94.999v-67.412h155.991V477H167.342v-34.789h58.279c59.044,0,106.276-13.795,141.8-41.388
	c35.503-27.569,53.239-68.949,53.239-124.135C420.66,223.923,403.039,184.334,367.773,157.944z M295.437,349.742
	c-17.281,14.167-42.939,21.213-76.984,21.213h-51.11V188.159h51.11c68.571,0,102.911,29.495,102.911,88.529
	C321.363,311.226,312.718,335.594,295.437,349.742z"/>
</svg>
