<?xml version="1.0" encoding="utf-8"?>
<!-- Generator: Adobe Illustrator 16.0.0, SVG Export Plug-In . SVG Version: 6.00 Build 0)  -->
<!DOCTYPE svg PUBLIC "-//W3C//DTD SVG 1.1//EN" "http://www.w3.org/Graphics/SVG/1.1/DTD/svg11.dtd">
<svg version="1.1" id="Layer_1" xmlns="http://www.w3.org/2000/svg" xmlns:xlink="http://www.w3.org/1999/xlink" x="0px" y="0px"
	 width="49.636px" height="49.692px" viewBox="2.58 0.423 49.636 49.692" enable-background="new 2.58 0.423 49.636 49.692"
	 xml:space="preserve">
<g>
	<g>
		<path fill="#C3D3EA" d="M31.21,15.926v3h17.214v25.689H28.922V1.492H3.508v3h22.414v40.123h-4.262V38.34H11.397v6.275h-4.89
			V33.808h16.675v-3H6.508v-4.441h16.675v-3H6.508v-4.441h16.675v-3H6.508v-4.531h16.675v-3H3.508v39.22h10.89V41.34h4.262v6.275
			h32.764V15.926H31.21z M45.372,23.457H31.21v3h14.162V23.457z M45.372,30.808H31.21v3h14.162V30.808z M45.372,38.16H31.21v3
			h14.162V38.16z"/>
	</g>
</g>
</svg>
