<?xml version="1.0" encoding="utf-8"?>
<!-- Generator: Adobe Illustrator 16.0.0, SVG Export Plug-In . SVG Version: 6.00 Build 0)  -->
<!DOCTYPE svg PUBLIC "-//W3C//DTD SVG 1.1//EN" "http://www.w3.org/Graphics/SVG/1.1/DTD/svg11.dtd">
<svg version="1.1" id="Layer_1" xmlns="http://www.w3.org/2000/svg" xmlns:xlink="http://www.w3.org/1999/xlink" x="0px" y="0px"
	 width="49.636px" height="49.692px" viewBox="2.58 0.423 49.636 49.692" enable-background="new 2.58 0.423 49.636 49.692"
	 xml:space="preserve">
<g>
	<g>
		<path fill="#C3D3EA" d="M27.529,12.614c-6.989,0-12.655,5.664-12.655,12.654c0,6.988,5.666,12.655,12.655,12.655
			s12.655-5.667,12.655-12.655C40.184,18.278,34.518,12.614,27.529,12.614z M27.529,35.138c-5.451,0-9.87-4.42-9.87-9.87
			c0-5.452,4.419-9.87,9.87-9.87c5.45,0,9.87,4.418,9.87,9.87C37.399,30.719,32.979,35.138,27.529,35.138z M11.905,25.58
			c0-0.69-0.561-1.249-1.25-1.249H6.28c-0.689,0-1.25,0.559-1.25,1.249c0,0.692,0.56,1.25,1.25,1.25h4.375
			C11.344,26.83,11.905,26.272,11.905,25.58z M14.934,36.536l-3.093,3.093c-0.489,0.489-0.489,1.28,0,1.77
			c0.489,0.488,1.28,0.488,1.768,0l3.094-3.093c0.488-0.489,0.488-1.28,0-1.77C16.214,36.051,15.423,36.051,14.934,36.536z
			 M27.843,40.889c-0.691,0.003-1.25,0.561-1.25,1.253l-0.002,4.375c0.002,0.689,0.561,1.25,1.252,1.25
			c0.69,0,1.251-0.561,1.249-1.25v-4.375C29.092,41.45,28.533,40.889,27.843,40.889z M40.566,36.094
			c-0.489-0.489-1.28-0.489-1.769,0c-0.486,0.488-0.486,1.279,0,1.769l3.094,3.093c0.487,0.489,1.278,0.489,1.768,0
			c0.488-0.489,0.488-1.283,0-1.769L40.566,36.094z M48.778,23.706h-4.375c-0.689,0-1.25,0.559-1.25,1.248
			c0,0.69,0.561,1.25,1.25,1.25h4.375c0.689,0,1.248-0.561,1.25-1.25C50.028,24.265,49.468,23.706,48.778,23.706z M40.122,13.999
			l3.095-3.093c0.487-0.488,0.487-1.28,0-1.768c-0.487-0.488-1.28-0.488-1.768,0l-3.094,3.093c-0.487,0.489-0.487,1.28,0,1.768
			C38.844,14.487,39.635,14.487,40.122,13.999z M27.216,9.643c0.691,0,1.248-0.561,1.25-1.249l0.002-4.376
			c-0.002-0.689-0.561-1.249-1.252-1.249c-0.69,0-1.25,0.559-1.25,1.249v4.375C25.966,9.083,26.525,9.643,27.216,9.643z
			 M14.492,14.441c0.489,0.488,1.28,0.488,1.769,0c0.486-0.488,0.486-1.279,0-1.768L13.167,9.58c-0.487-0.487-1.278-0.487-1.768,0
			c-0.489,0.489-0.489,1.279,0,1.768L14.492,14.441z"/>
	</g>
</g>
</svg>
